<?xml version="1.0" encoding="UTF-8" standalone="no"?>
<!DOCTYPE svg PUBLIC "-//W3C//DTD SVG 1.1//EN"
 "http://www.w3.org/Graphics/SVG/1.1/DTD/svg11.dtd">
<!-- Generated by graphviz version 2.38.0 (20140413.2041)
 -->
<!-- Title: Flixter Pages: 1 -->
<svg width="366pt" height="402pt"
 viewBox="0.00 0.00 365.60 401.55" xmlns="http://www.w3.org/2000/svg" xmlns:xlink="http://www.w3.org/1999/xlink">
<g id="graph0" class="graph" transform="scale(1 1) rotate(0) translate(28.8 372.749)">
<title>Flixter</title>
<polygon fill="white" stroke="none" points="-28.8,28.8 -28.8,-372.749 336.8,-372.749 336.8,28.8 -28.8,28.8"/>
<text text-anchor="middle" x="154" y="-329.549" font-family="Arial Bold" font-size="13.00">Flixter domain model</text>
<!-- m_Course -->
<g id="node1" class="node"><title>m_Course</title>
<path fill="none" stroke="black" d="M22,-73.5C22,-73.5 286,-73.5 286,-73.5 292,-73.5 298,-79.5 298,-85.5 298,-85.5 298,-113.5 298,-113.5 298,-119.5 292,-125.5 286,-125.5 286,-125.5 22,-125.5 22,-125.5 16,-125.5 10,-119.5 10,-113.5 10,-113.5 10,-85.5 10,-85.5 10,-79.5 16,-73.5 22,-73.5"/>
<text text-anchor="start" x="61.0508" y="-96.7" font-family="Arial Bold" font-size="11.00">Course</text>
<polyline fill="none" stroke="black" points="154,-73.5 154,-125.5 "/>
<text text-anchor="start" x="161" y="-112.5" font-family="Arial" font-size="10.00">cost </text>
<text text-anchor="start" x="182.118" y="-112.5" font-family="Arial Italic" font-size="10.00" fill="#999999">decimal ∗</text>
<text text-anchor="start" x="161" y="-98.5" font-family="Arial" font-size="10.00">description </text>
<text text-anchor="start" x="212.138" y="-98.5" font-family="Arial Italic" font-size="10.00" fill="#999999">text ∗</text>
<text text-anchor="start" x="161" y="-84.5" font-family="Arial" font-size="10.00">title </text>
<text text-anchor="start" x="179.34" y="-84.5" font-family="Arial Italic" font-size="10.00" fill="#999999">string ∗</text>
</g>
<!-- m_Section -->
<g id="node2" class="node"><title>m_Section</title>
<path fill="none" stroke="black" d="M22,-0.5C22,-0.5 286,-0.5 286,-0.5 292,-0.5 298,-6.5 298,-12.5 298,-12.5 298,-24.5 298,-24.5 298,-30.5 292,-36.5 286,-36.5 286,-36.5 22,-36.5 22,-36.5 16,-36.5 10,-30.5 10,-24.5 10,-24.5 10,-12.5 10,-12.5 10,-6.5 16,-0.5 22,-0.5"/>
<text text-anchor="start" x="60.135" y="-15.7" font-family="Arial Bold" font-size="11.00">Section</text>
<polyline fill="none" stroke="black" points="154,-0.5 154,-36.5 "/>
<text text-anchor="start" x="161" y="-16.5" font-family="Arial" font-size="10.00">title </text>
<text text-anchor="start" x="179.34" y="-16.5" font-family="Arial Italic" font-size="10.00" fill="#999999">string</text>
</g>
<!-- m_Course&#45;&gt;m_Section -->
<g id="edge2" class="edge"><title>m_Course&#45;&gt;m_Section</title>
<path fill="none" stroke="black" d="M154,-73.0691C154,-64.3241 154,-54.521 154,-45.7149"/>
<polygon fill="black" stroke="black" points="157.15,-45.6479 154,-36.6479 150.85,-45.6479 157.15,-45.6479"/>
</g>
<!-- m_User -->
<g id="node3" class="node"><title>m_User</title>
<path fill="none" stroke="black" d="M12,-162.5C12,-162.5 296,-162.5 296,-162.5 302,-162.5 308,-168.5 308,-174.5 308,-174.5 308,-293.5 308,-293.5 308,-299.5 302,-305.5 296,-305.5 296,-305.5 12,-305.5 12,-305.5 6,-305.5 0,-299.5 0,-293.5 0,-293.5 0,-174.5 0,-174.5 0,-168.5 6,-162.5 12,-162.5"/>
<text text-anchor="start" x="57.77" y="-231.2" font-family="Arial Bold" font-size="11.00">User</text>
<polyline fill="none" stroke="black" points="144,-162.5 144,-305.5 "/>
<text text-anchor="start" x="151" y="-292" font-family="Arial" font-size="10.00">current_sign_in_at </text>
<text text-anchor="start" x="236.054" y="-292" font-family="Arial Italic" font-size="10.00" fill="#999999">datetime</text>
<text text-anchor="start" x="151" y="-279" font-family="Arial" font-size="10.00">current_sign_in_ip </text>
<text text-anchor="start" x="235.497" y="-279" font-family="Arial Italic" font-size="10.00" fill="#999999">inet</text>
<text text-anchor="start" x="151" y="-266" font-family="Arial" font-size="10.00">email </text>
<text text-anchor="start" x="177.675" y="-266" font-family="Arial Italic" font-size="10.00" fill="#999999">string ∗ U</text>
<text text-anchor="start" x="151" y="-252" font-family="Arial" font-size="10.00">encrypted_password </text>
<text text-anchor="start" x="246.054" y="-252" font-family="Arial Italic" font-size="10.00" fill="#999999">string ∗</text>
<text text-anchor="start" x="151" y="-238" font-family="Arial" font-size="10.00">last_sign_in_at </text>
<text text-anchor="start" x="220.492" y="-238" font-family="Arial Italic" font-size="10.00" fill="#999999">datetime</text>
<text text-anchor="start" x="151" y="-225" font-family="Arial" font-size="10.00">last_sign_in_ip </text>
<text text-anchor="start" x="219.936" y="-225" font-family="Arial Italic" font-size="10.00" fill="#999999">inet</text>
<text text-anchor="start" x="151" y="-212" font-family="Arial" font-size="10.00">remember_created_at </text>
<text text-anchor="start" x="252.162" y="-212" font-family="Arial Italic" font-size="10.00" fill="#999999">datetime</text>
<text text-anchor="start" x="150.956" y="-199" font-family="Arial" font-size="10.00">reset_password_sent_at </text>
<text text-anchor="start" x="262.689" y="-199" font-family="Arial Italic" font-size="10.00" fill="#999999">datetime</text>
<text text-anchor="start" x="151" y="-186" font-family="Arial" font-size="10.00">reset_password_token </text>
<text text-anchor="start" x="254.394" y="-186" font-family="Arial Italic" font-size="10.00" fill="#999999">string</text>
<text text-anchor="start" x="151" y="-173" font-family="Arial" font-size="10.00">sign_in_count </text>
<text text-anchor="start" x="215.492" y="-173" font-family="Arial Italic" font-size="10.00" fill="#999999">integer ∗</text>
</g>
<!-- m_User&#45;&gt;m_Course -->
<g id="edge1" class="edge"><title>m_User&#45;&gt;m_Course</title>
<path fill="none" stroke="black" d="M154,-162.483C154,-152.873 154,-143.384 154,-134.828"/>
<polygon fill="black" stroke="black" points="157.15,-134.608 154,-125.608 150.85,-134.609 157.15,-134.608"/>
</g>
</g>
</svg>
